<?xml version="1.0" encoding="utf-8"?>
<!-- Generator: Adobe Illustrator 22.1.0, SVG Export Plug-In . SVG Version: 6.00 Build 0)  -->
<svg version="1.1" id="Livello_1" xmlns="http://www.w3.org/2000/svg" xmlns:xlink="http://www.w3.org/1999/xlink" x="0px" y="0px"
	 viewBox="0 0 12.3 26.5" style="enable-background:new 0 0 12.3 26.5;" xml:space="preserve">
<style type="text/css">
	.st0{fill:#FECB00;}
	.st1{fill:#FECB00;stroke:#FFFFFF;stroke-miterlimit:10;}
	.st2{fill:#FFFFFF;stroke:#FECB00;stroke-miterlimit:10;}
	.st3{fill:#B1B1B0;}
	.st4{opacity:0.9;}
	.st5{fill:#FFFFFF;}
	.st6{fill:#30302F;}
</style>
<path class="st0" d="M0,8.5c0.5,0,1,0,1.5,0c1.1,0,1,0.2,1-1c0-0.9,0-1.9,0.1-2.8c0.1-2.5,2-4.5,4.5-4.7C8.7,0,10.2,0,11.8,0
	c0.3,0,0.4,0.1,0.4,0.4c0,1.3,0,2.6,0,3.8c0,0.4-0.2,0.5-0.5,0.5c-0.8,0-1.6,0-2.4,0c-0.7,0-1.1,0.4-1.1,1.1c0,0.7,0,1.5,0,2.2
	c0,0.4,0.1,0.5,0.5,0.5c1,0,2,0,3,0c0.2,0,0.3,0,0.5,0c0,0.1,0,0.2,0,0.3c-0.1,1.4-0.3,2.7-0.4,4.1c0,0.3-0.2,0.3-0.4,0.3
	c-0.9,0-1.8,0-2.8,0c-0.4,0-0.5,0.1-0.5,0.6c0,4,0,7.9,0,11.9c0,0.8,0,0.8-0.7,0.8c-1.4,0-2.9,0-4.3,0c-0.5,0-0.6-0.2-0.6-0.6
	c0-4,0-7.9,0-11.9c0-0.7,0-0.7-0.7-0.7c-0.6,0-1.2,0-1.8,0C0,11.7,0,10.1,0,8.5z"/>
</svg>
