<?xml version="1.0" encoding="utf-8"?>
<!-- Generator: Adobe Illustrator 22.1.0, SVG Export Plug-In . SVG Version: 6.00 Build 0)  -->
<svg version="1.1" id="Livello_1" xmlns="http://www.w3.org/2000/svg" xmlns:xlink="http://www.w3.org/1999/xlink" x="0px" y="0px"
	 viewBox="0 0 31.6 30.2" style="enable-background:new 0 0 31.6 30.2;" xml:space="preserve">
<style type="text/css">
	.st0{fill:#fff;}
</style>
<g id="b4a9vL_1_">
	<g>
		<g>
			<path class="st0" d="M31.6,30.2c-2.1,0-4.3,0-6.4,0c-0.1,0-0.2,0-0.4,0c0-0.2,0-0.3,0-0.4c0-3.5,0-6.9,0-10.4
				c0-0.9-0.1-1.7-0.4-2.6c-0.5-1.4-1.5-2.1-3-2.1c-1.7,0-3.3,1.2-3.6,2.9c-0.1,0.5-0.1,0.9-0.1,1.4c0,3.6,0,7.2,0,10.8
				c0,0.1,0,0.2,0,0.4c-2.3,0-4.5,0-6.8,0c0-6.8,0-13.5,0-20.3c2.2,0,4.5,0,6.7,0c0,0.9,0,1.8,0,2.8c0.2-0.3,0.4-0.6,0.6-0.8
				c1.3-1.6,3-2.4,5-2.5c1.4-0.1,2.7,0.1,3.9,0.7c1.7,0.8,2.8,2,3.5,3.7c0.5,1.1,0.7,2.2,0.8,3.4c0,0.1,0,0.2,0.1,0.3
				C31.6,21.6,31.6,25.9,31.6,30.2z"/>
			<path class="st0" d="M0,3c0.2-0.5,0.3-1.1,0.6-1.5C1.5,0.3,2.8-0.1,4.2,0C5.4,0.1,6.4,0.6,7,1.6c1.2,1.9,0.5,4.8-2.2,5.3
				C3.7,7.2,2.6,7.1,1.7,6.5C0.8,6,0.3,5.2,0.1,4.2C0,4.2,0,4.1,0,4C0,3.7,0,3.3,0,3z"/>
			<path class="st0" d="M0.4,30.1c0-0.1,0-0.2,0-0.4c0-6.5,0-13.1,0-19.6c0-0.3,0.1-0.4,0.4-0.4c2,0,4,0,6.1,0c0.1,0,0.2,0,0.3,0
				c0,6.8,0,13.6,0,20.4C4.9,30.1,2.7,30.1,0.4,30.1z"/>
		</g>
	</g>
</g>
</svg>
