<?xml version="1.0" encoding="utf-8"?>
<!-- Generator: Adobe Illustrator 22.1.0, SVG Export Plug-In . SVG Version: 6.00 Build 0)  -->
<svg version="1.1" id="Livello_1" xmlns="http://www.w3.org/2000/svg" xmlns:xlink="http://www.w3.org/1999/xlink" x="0px" y="0px"
	 viewBox="0 0 26.5 26.5" style="enable-background:new 0 0 26.5 26.5;" xml:space="preserve">
<style type="text/css">
	.st0{fill:#fff;}
</style>
<g>
	<g>
		<path class="st0" d="M13.3,8.7c-2.5,0-4.5,2-4.5,4.5c0,2.5,2,4.5,4.5,4.5c2.5,0,4.5-2,4.5-4.5C17.8,10.8,15.8,8.8,13.3,8.7z
			 M13.3,8.7c-2.5,0-4.5,2-4.5,4.5c0,2.5,2,4.5,4.5,4.5c2.5,0,4.5-2,4.5-4.5C17.8,10.8,15.8,8.8,13.3,8.7z M26.5,8
			c0-0.6,0-1.2-0.2-1.8C25.5,2.5,22.4,0,18.6,0C15,0,11.5,0,7.9,0C7.3,0,6.7,0.1,6.1,0.2C2.4,1.1,0,4.2,0,8c0,3.5,0,7.1,0,10.6
			c0,0.6,0,1.2,0.2,1.8c0.9,3.7,3.9,6.1,7.8,6.1c3.5,0,7.1,0,10.6,0c0.9,0,1.8-0.1,2.6-0.4c3.3-1.1,5.3-4,5.4-7.5c0-1.8,0-3.5,0-5.3
			C26.5,11.5,26.5,9.8,26.5,8z M13.2,20c-3.7,0-6.8-3.1-6.7-6.8c0-3.7,3.1-6.7,6.8-6.7c3.7,0,6.8,3.1,6.8,6.8C20,17,16.9,20,13.2,20
			z M20.3,7.7c-0.8,0-1.5-0.7-1.5-1.5c0-0.9,0.7-1.5,1.6-1.5c0.8,0,1.5,0.7,1.5,1.5C21.9,7,21.2,7.7,20.3,7.7z M13.3,8.7
			c-2.5,0-4.5,2-4.5,4.5c0,2.5,2,4.5,4.5,4.5c2.5,0,4.5-2,4.5-4.5C17.8,10.8,15.8,8.8,13.3,8.7z"/>
	</g>
</g>
</svg>
