<?xml version="1.0" encoding="utf-8"?>
<!-- Generator: Adobe Illustrator 22.1.0, SVG Export Plug-In . SVG Version: 6.00 Build 0)  -->
<svg version="1.1" id="Livello_1" xmlns="http://www.w3.org/2000/svg" xmlns:xlink="http://www.w3.org/1999/xlink" x="0px" y="0px"
	 viewBox="0 0 180.9 125.5" style="enable-background:new 0 0 180.9 125.5;" xml:space="preserve">
<style type="text/css">
	.st0{fill:#FECB00;}
	.st1{fill:#FECB00;stroke:#FFFFFF;stroke-miterlimit:10;}
	.st2{fill:#FFFFFF;stroke:#FECB00;stroke-miterlimit:10;}
	.st3{fill:#FFF;}
	.st4{opacity:0.9;}
	.st5{fill:#FFFFFF;}
	.st6{fill:#30302F;}
</style>
<g>
	<path class="st3" d="M51.1,37.2c0-10.8,8.8-19.6,19.6-19.6c10.8,0,19.6,8.8,19.6,19.6c0,10.8-8.8,19.6-19.6,19.6
		C59.9,56.8,51.1,48,51.1,37.2 M99.7,60.4c5.1-6.4,8.2-14.4,8.2-23.2C107.9,16.7,91.2,0,70.7,0C50.2,0,33.5,16.7,33.5,37.2
		c0,20.4,16.5,37,36.9,37.2v0h14.1c9.3,0,16.8,7.5,16.8,16.8c0,9.3-7.5,16.8-16.8,16.8c-9.7,0-14-6-17.9-12.8l-0.8-1.3l-1-1.7
		c-3.7-6.6-12.4-21.9-30.5-21.9C15.4,70.2,0,85.6,0,104.6l0,0h0c0,1.7,1.3,3,3,3h11.6c1.6,0,3-1.3,3-3l0,0c0-9.3,7.5-16.8,16.8-16.8
		c7.2,0,11.3,6.2,15.2,13l1.2,2.1l0.7,1.1c3.7,6.4,12.5,21.5,33.1,21.5c18.9,0,34.3-15.4,34.3-34.3C118.9,77.7,111,66,99.7,60.4"/>
	<g>
		<path class="st3" d="M169.3,90.1c0,5-2.9,6.5-7.2,6.5h-13.6l-0.7-0.7V84.3l0.7-0.7h13.6C166.4,83.6,169.3,85.1,169.3,90.1
			 M179.3,90.1c0-10-7.2-15.1-17.2-15.1h-23.7l-0.7,0.7v48.8l0.7,0.7h8.6l0.7-0.7v-18.6l0.7-0.7h7.2l1.4,0.7l14.3,18.6l1.4,0.7h4.3
			l0.7-0.7v-7.2l-9.3-12.2v-0.7C174.3,103,179.3,98,179.3,90.1"/>
	</g>
	<polygon class="st3" points="178.2,8.2 178.2,1 177.5,0.3 171.1,0.3 170.4,1 157.4,36.2 156.7,36.2 143.8,1 143.1,0.3 136.6,0.3 
		135.9,1 135.9,8.2 151.7,49.8 152.4,50.5 161.7,50.5 162.5,49.8 	"/>
	<rect x="134.3" y="60.6" class="st3" width="46.6" height="1.3"/>
</g>
</svg>
