<?xml version="1.0" encoding="utf-8"?>
<!-- Generator: Adobe Illustrator 22.1.0, SVG Export Plug-In . SVG Version: 6.00 Build 0)  -->
<svg version="1.1" id="Livello_1" xmlns="http://www.w3.org/2000/svg" xmlns:xlink="http://www.w3.org/1999/xlink" x="0px" y="0px"
	 viewBox="0 0 436.1 103.9" style="enable-background:new 0 0 436.1 103.9;" xml:space="preserve">
<style type="text/css">
	.st0{fill:#FECB00;}
	.st1{fill:#FECB00;stroke:#FFFFFF;stroke-miterlimit:10;}
	.st2{fill:#FFFFFF;stroke:#FECB00;stroke-miterlimit:10;}
	.st3{fill:#FFF;}
	.st4{opacity:0.9;}
	.st5{fill:#FFFFFF;}
	.st6{fill:#30302F;}
</style>
<g>
	<g>
		<g>
			<path class="st3" d="M181,95.1h-17l-3,7.8h-15.3l19.6-44.8h14.8l19.6,44.8H184L181,95.1z M176.9,84.2L172.5,73l-4.3,11.3H176.9z"
				/>
			<path class="st3" d="M231,79.3h13.1v18.9c-5.4,3.7-12.9,5.7-19.5,5.7c-14.5,0-25-9.7-25-23.4c0-13.8,10.6-23.4,25.3-23.4
				c8.8,0,15.9,3.1,20.5,8.6l-9.7,8.5c-2.8-3.3-6.1-4.9-10-4.9c-6.7,0-10.9,4.3-10.9,11.2c0,6.7,4.2,11.2,10.7,11.2
				c1.9,0,3.6-0.3,5.5-1.1V79.3z"/>
			<path class="st3" d="M287.8,91.5v11.4h-37.2V58.1H287v11.4h-21.6v5.2h18.9v10.9h-18.9v5.9H287.8z"/>
			<path class="st3" d="M337.8,58.1v44.8h-12.4l-17-20.3v20.3h-14.7V58.1H306l17,20.3V58.1H337.8z"/>
			<path class="st3" d="M343.3,80.5c0-13.8,10.6-23.4,24.9-23.4c8.8,0,15.7,3.2,20.1,9l-9.5,8.5c-2.6-3.3-5.8-5.2-9.8-5.2
				c-6.3,0-10.5,4.3-10.5,11.2s4.2,11.2,10.5,11.2c4,0,7.2-1.9,9.8-5.2l9.5,8.5c-4.4,5.8-11.3,9-20.1,9
				C353.8,103.9,343.3,94.3,343.3,80.5z"/>
			<path class="st3" d="M419.2,86.7v16.2h-15.1V86.5l-16.9-28.3h15.9l9.1,15.5l9.2-15.5h14.6L419.2,86.7z"/>
		</g>
		<g>
			<path class="st3" d="M177.1,22.2h13.1v18.9c-5.4,3.7-12.9,5.7-19.5,5.7c-14.5,0-25-9.7-25-23.4C145.7,9.7,156.2,0,171,0
				c8.8,0,15.9,3.1,20.5,8.6l-9.7,8.5c-2.8-3.3-6.1-4.9-10-4.9c-6.7,0-10.9,4.3-10.9,11.2c0,6.7,4.2,11.2,10.7,11.2
				c1.9,0,3.6-0.3,5.5-1.1V22.2z"/>
			<path class="st3" d="M194.8,23.4C194.8,9.8,205.5,0,220.1,0c14.6,0,25.3,9.8,25.3,23.4s-10.7,23.4-25.3,23.4
				C205.5,46.8,194.8,37,194.8,23.4z M230.1,23.4c0-7-4.5-11.2-10-11.2s-10,4.2-10,11.2s4.5,11.2,10,11.2S230.1,30.4,230.1,23.4z"/>
			<path class="st3" d="M250.9,1h15.1v33.1h20.2v11.7h-35.3V1z"/>
			<path class="st3" d="M290.3,1h22.1c15,0,25.3,8.5,25.3,22.4c0,13.9-10.3,22.4-25.3,22.4h-22.1V1z M311.7,34
				c6.3,0,10.7-3.8,10.7-10.6c0-6.8-4.3-10.6-10.7-10.6h-6.3V34H311.7z"/>
		</g>
	</g>
	<g>
		<path class="st3" d="M88.6,30.8c0,8.4,6.8,15.2,15.2,15.2c8.4,0,15.2-6.8,15.2-15.2c0-8.4-6.8-15.2-15.2-15.2
			C95.5,15.6,88.6,22.4,88.6,30.8z"/>
		<path class="st3" d="M128,74.5c-0.2-7-6.1-12.5-13.2-12.5h-11.2h-0.8v0c-16.7-0.6-30.2-14.4-30.2-31.2c0-14.7,10.2-27,23.9-30.3
			C96.7,0.4,96.7,0,96.4,0L58.8,0C41.5,0,27.2,13.8,27.1,31c-0.1,10.6,5.2,20,13.2,25.7c0,0-11.3,0-11.3,0c-7.7,0-15,3-20.5,8.5
			C3,70.8,0,78,0,85.8c0,0.1,0,0.1,0,0.2c0.1,1.9,1.7,3.5,3.6,3.5h40.2c3.9,6,11.4,14.5,25.7,14.5l39.9-0.1c0.3,0,0.3-0.4,0-0.5
			C96.2,101,90.1,90.6,87.4,85.9l-0.5-0.9l-1-1.7c-3-5.4-6.2-10.2-11.7-10.2c-7,0-12.6,5.5-12.9,12.4l0,0v0.5c0,1.8-1.5,3.3-3.3,3.3
			h-9.5c-1.7,0-3.1-1.3-3.3-3l0,0v-0.3c0-7.7,3-15,8.5-20.4C59.2,60,66.4,57,74.1,57c15.3,0,22.5,12.8,25.6,18.3l0.8,1.4l0.6,1.1
			c3.2,5.5,6.4,10,13.9,10C122.4,87.8,128.2,81.8,128,74.5z"/>
	</g>
</g>
</svg>
