<?xml version="1.0" encoding="utf-8"?>
<!-- Generator: Adobe Illustrator 22.1.0, SVG Export Plug-In . SVG Version: 6.00 Build 0)  -->
<svg version="1.1" id="Livello_1" xmlns="http://www.w3.org/2000/svg" xmlns:xlink="http://www.w3.org/1999/xlink" x="0px" y="0px"
	 viewBox="0 0 445.2 459.7" style="enable-background:new 0 0 445.2 459.7;" xml:space="preserve">
<style type="text/css">
	.st0{fill:#FECB00;}
	.st1{fill:#FECB00;stroke:#FFFFFF;stroke-miterlimit:10;}
	.st2{fill:#FFFFFF;stroke:#FECB00;stroke-miterlimit:10;}
	.st3{fill:#B1B1B0;}
	.st4{opacity:0.9;}
	.st5{fill:#FFFFFF;}
	.st6{fill:#30302F;}
</style>
<g>
	<path d="M445.2,294.8c0-41.3-21.1-77.8-53-99.2c12.1-19.6,19.2-42.7,19.1-67.3C411.3,57.5,353.8,0,283.1,0c-2.9,0-5.8,0.1-8.6,0.3
		C165.7,5.1,103.4,99.7,103.4,173.8c0,20.1,4.7,39.1,13,56.1c-11.8,6.1-22.5,14.1-31.6,23.6c-9.6,8.8-40.3,34.3-49.8,43.8
		c-22.6,22.6-35,52.5-35,84.4c0,12.6,10.2,22.7,22.7,22.7h35.7c17.3,0,52.7-34.8,66.5-51c2.3-2,4.2-4.4,5.5-7.1
		c8.3,4.7,15.5,15,24.2,30.4c0.1,0.1,3.8,6.6,3.8,6.6c0,0.1,2.1,3.5,2.1,3.5c11.6,19.9,42.4,72.9,113.7,72.9
		c54.3,0,111.1-52.5,137-81.5C432.2,356.7,445.2,327.2,445.2,294.8z"/>
	<path class="st0" d="M372.5,199.9c15.7-19.6,25.2-44.5,25.2-71.6c0-63.2-51.4-114.7-114.7-114.7c-63.2,0-114.7,51.4-114.7,114.7
		c0,62.9,51,114.2,113.8,114.6v0.1h43.5c28.6,0,51.8,23.2,51.8,51.8c0,28.6-23.3,51.8-51.8,51.8c-29.9,0-43.2-18.6-55.3-39.3
		l-2.4-4.1l-3.1-5.4c-11.5-20.2-38.3-67.6-94-67.6c-58.4,0-105.9,47.5-105.9,105.9l0,0h0c0,5.1,4.1,9.2,9.2,9.2H110
		c5.1,0,9.2-4.1,9.2-9.2l0,0l0,0c0-28.6,23.3-51.8,51.8-51.8c22.3,0,35,19,46.9,40.2l3.8,6.5l2,3.5c11.5,19.8,38.5,66.3,102,66.3
		c58.4,0,105.9-47.5,105.9-105.9C431.6,253.2,407.5,217.2,372.5,199.9z M222.5,128.3c0-33.4,27.2-60.6,60.6-60.6
		c33.4,0,60.6,27.2,60.6,60.6c0,33.4-27.2,60.6-60.6,60.6C249.7,188.8,222.5,161.7,222.5,128.3z"/>
</g>
</svg>
