<?xml version="1.0" encoding="utf-8"?>
<!-- Generator: Adobe Illustrator 22.1.0, SVG Export Plug-In . SVG Version: 6.00 Build 0)  -->
<svg version="1.1" id="Livello_1" xmlns="http://www.w3.org/2000/svg" xmlns:xlink="http://www.w3.org/1999/xlink" x="0px" y="0px"
	 viewBox="0 0 1095.2 120" style="enable-background:new 0 0 1095.2 120;" xml:space="preserve">
<style type="text/css">
	.st0{fill:#FFF;}
	.st1{fill:#FECB00;stroke:#FFFFFF;stroke-miterlimit:10;}
	.st2{fill:#FFFFFF;stroke:#FECB00;stroke-miterlimit:10;}
	.st3{fill:#FFF;}
	.st4{opacity:0.9;}
	.st5{fill:#FFFFFF;}
	.st6{fill:#30302F;}
</style>
<g class="st4">
	<path class="st0" d="M116.1,117.7H94v-12.7c-9.1,10.4-20,14.8-34.7,14.8c-17.1,0-31.5-6.2-42.9-18.2C5.5,90.1,0,75.8,0,58.8
		c0-15.9,6.2-30.5,17.5-41.7C28.9,6,43.2,0.2,59.4,0.2c13.6,0,24.2,3.7,32.8,12.3V2.4h21.1v38H84c-5.7-8.6-13.8-13.2-23.5-13.2
		c-17.9,0-31.3,14-31.3,31.7c0,19,14.5,33.6,30.2,33.6c10.7,0,20.3-5.8,25.8-16.2h-33V53.3h64V117.7z"/>
	<path class="st0" d="M147.6,16.9C159,5.7,173.3,0,189.7,0c15.6,0,29.9,5.8,41.1,17.1c11.7,11.5,17.9,26.3,17.9,42.1
		c0,16.6-5.8,31.3-16.7,42.7c-11.2,11.7-26.3,18.2-42.5,18.2c-17.2,0-31.5-6.2-42.9-18.3c-10.9-11.7-16.4-25.8-16.4-42.9
		C130.1,42.7,136.2,28.1,147.6,16.9z M189.3,91.3c16.6,0,30.2-13.3,30.2-32.2c0-16.9-13.5-30.4-29.7-30.4
		c-17.2,0-30.7,13.5-30.7,30.4C159.1,77.3,173.4,91.3,189.3,91.3z"/>
	<path class="st0" d="M319.9,94V80.5h25.3v37.2H261V94h11.2V26H261V2.3h50V26h-10.4v68H319.9z"/>
	<path class="st0" d="M370.7,26h-11.2V2.3h51.3c18.3,0,31.5,2.4,43.4,13.8c11,10.4,16.7,25.5,16.7,44.5c0,17.7-5.8,32.6-16.4,43
		c-10.7,10.4-22.9,14.1-39.8,14.1h-55.2V93.9h11.2V26z M442,59.8c0-20.8-11.4-32.5-32-32.5h-11v65.1h11.4
		C431.8,92.4,442,82.2,442,59.8z"/>
	<path class="st0" d="M513,117.7L488.3,26h-8.9V2.3H526V26h-9.6l11.4,47.1l16.6-70.8h25l16.4,72.6L597.3,26h-9.7V2.3h46.6V26h-8.9
		l-24.7,91.7h-26L556.8,46L539,117.7H513z"/>
	<path class="st0" d="M661.8,16.9C673.1,5.7,687.4,0,703.8,0c15.6,0,29.9,5.8,41.1,17.1c11.7,11.5,17.9,26.3,17.9,42.1
		c0,16.6-5.8,31.3-16.7,42.7c-11.2,11.7-26.3,18.2-42.5,18.2c-17.2,0-31.5-6.2-42.9-18.3c-10.9-11.7-16.4-25.8-16.4-42.9
		C644.2,42.7,650.4,28.1,661.8,16.9z M703.5,91.3c16.6,0,30.2-13.3,30.2-32.2c0-16.9-13.5-30.4-29.7-30.4
		c-17.2,0-30.7,13.5-30.7,30.4C673.3,77.3,687.6,91.3,703.5,91.3z"/>
	<path class="st0" d="M821.6,93.9v23.9h-46.4V93.9h11.2V26h-11.2V2.3h46.4c13.3,0,23.9,0.2,32.6,6.3c9.9,6.8,15.9,18.8,15.9,32
		c0,15.9-8.1,29.2-21.6,35.7l14.3,17.5h10.9v23.9h-25l-33.9-41.4v17.5H821.6z M820.3,55.5c14.1,0,20.9-3.9,20.9-13.8
		c0-10.4-6-13.5-19.6-13.5h-6.8v27.3H820.3z"/>
	<path class="st0" d="M944.2,94V80.5h25.3v37.2h-84.3V94h11.2V26h-11.2V2.3h50V26h-10.4v68H944.2z"/>
	<path class="st0" d="M995,26h-11.2V2.3h51.3c18.3,0,31.5,2.4,43.4,13.8c11,10.4,16.7,25.5,16.7,44.5c0,17.7-5.8,32.6-16.4,43
		c-10.7,10.4-22.9,14.1-39.8,14.1h-55.2V93.9H995V26z M1066.3,59.8c0-20.8-11.4-32.5-32-32.5h-11v65.1h11.4
		C1056.1,92.4,1066.3,82.2,1066.3,59.8z"/>
</g>
</svg>
