<?xml version="1.0" encoding="utf-8"?>
<!-- Generator: Adobe Illustrator 22.1.0, SVG Export Plug-In . SVG Version: 6.00 Build 0)  -->
<svg version="1.1" id="Livello_1" xmlns="http://www.w3.org/2000/svg" xmlns:xlink="http://www.w3.org/1999/xlink" x="0px" y="0px"
	 viewBox="0 0 403 100" style="enable-background:new 0 0 403 100;" xml:space="preserve">
<style type="text/css">
	.st0{fill:#FECB00;}
	.st1{fill:#FECB00;stroke:#FFFFFF;stroke-miterlimit:10;}
	.st2{fill:#FFFFFF;stroke:#FECB00;stroke-miterlimit:10;}
	.st3{fill:#FFF;}
	.st4{opacity:0.9;}
	.st5{fill:#FFFFFF;}
	.st6{fill:#30302F;}
</style>
<g>
	<g>
		<g>
			<g>
				<path class="st3" d="M79.4,48.1c4.1-5.1,6.5-11.5,6.5-18.5C85.9,13.3,72.7,0,56.3,0C40,0,26.7,13.3,26.7,29.6
					c0,16.3,13.2,29.5,29.4,29.6v0h11.2c7.4,0,13.4,6,13.4,13.4c0,7.4-6,13.4-13.4,13.4c-7.7,0-11.2-4.8-14.3-10.2l-0.6-1.1
					l-0.8-1.4c-3-5.2-9.9-17.5-24.3-17.5C12.3,56,0,68.2,0,83.3l0,0h0c0,1.3,1.1,2.4,2.4,2.4h9.2c1.3,0,2.4-1.1,2.4-2.4l0,0l0,0
					c0-7.4,6-13.4,13.4-13.4c5.8,0,9,4.9,12.1,10.4l1,1.7l0.5,0.9C44,88,50.9,100,67.3,100c15.1,0,27.4-12.3,27.4-27.4
					C94.7,61.9,88.5,52.6,79.4,48.1z M40.7,29.6c0-8.6,7-15.6,15.6-15.6C65,14,72,21,72,29.6c0,8.6-7,15.6-15.6,15.6
					C47.7,45.3,40.7,38.3,40.7,29.6z"/>
			</g>
		</g>
	</g>
	<rect x="101.6" y="0.6" class="st3" width="5.5" height="98.9"/>
	<path class="st3" d="M128.8,46.7c-4.2,0-7-1.7-8.8-3.9c-3-3.6-3.3-8.6-3.3-19.4S117,7.5,120,3.9c1.9-2.2,4.6-3.9,8.8-3.9
		c3.5,0,6.2,1.2,8.1,3.1c2.2,2.3,3.4,5.6,3.5,9.6h-7.2c-0.1-2.5-0.6-6.2-4.5-6.2c-1.7,0-2.8,0.7-3.4,1.7c-1.4,2.2-1.6,6.8-1.6,15.1
		s0.2,12.9,1.6,15.1c0.6,1,1.7,1.7,3.4,1.7c3.1,0,4.5-2.7,4.5-5.8v-7.1h-4.5v-5.9h11.7V34C140.5,42.3,135.7,46.7,128.8,46.7z"/>
	<path class="st3" d="M165.6,42.8c-1.9,2.2-4.6,3.9-8.8,3.9c-4.2,0-7-1.7-8.8-3.9c-3-3.7-3.3-8.6-3.3-19.4s0.3-15.8,3.3-19.4
		c1.9-2.2,4.6-3.9,8.8-3.9c4.2,0,7,1.7,8.8,3.9c3.1,3.6,3.3,8.6,3.3,19.4S168.7,39.2,165.6,42.8z M160.2,8.2c-0.6-1-1.7-1.7-3.5-1.7
		s-2.8,0.7-3.4,1.7c-1.3,2.2-1.6,6.8-1.6,15.1s0.3,12.9,1.6,15.1c0.6,1,1.7,1.7,3.4,1.7s2.8-0.7,3.5-1.7c1.3-2.2,1.5-6.8,1.5-15.1
		S161.6,10.4,160.2,8.2z"/>
	<path class="st3" d="M173.1,46.1V0.5h7.2v39.2h12v6.5H173.1z"/>
	<path class="st3" d="M216.8,42.4c-1.9,2.1-4.5,3.8-8.8,3.8h-11.6V0.5H208c4.4,0,7,1.7,8.8,3.8c3.1,3.4,3.3,8.5,3.3,19
		S219.9,39,216.8,42.4z M211.4,8.8c-0.7-1.1-1.9-1.9-3.7-1.9h-4.2v32.7h4.2c1.7,0,2.9-0.8,3.7-1.9c1.4-2.1,1.5-6.6,1.5-14.5
		S212.8,11,211.4,8.8z"/>
	<g>
		<path class="st3" d="M129.1,81.7h-4.3v17.8h-7.2V54h11.4c8.2,0,11.7,4.3,11.7,13.9S137.3,81.7,129.1,81.7z M128.9,60.5h-4v14.7h4
			c3.8,0,4.8-2.7,4.8-7.3S132.7,60.5,128.9,60.5z"/>
		<path class="st3" d="M162,99.5l-5.9-18.6h-4v18.6h-7.2V54h11.5c8.3,0,11.6,4,11.6,13.4c0,5.6-1.1,9.6-5.3,11.9l6.8,20.2H162z
			 M156.5,60.5h-4.4v13.9h4.4c3.8,0,4.4-3.2,4.4-7C160.9,63.7,160.3,60.5,156.5,60.5z"/>
		<path class="st3" d="M194.5,96.1c-1.9,2.2-4.6,3.9-8.8,3.9s-7-1.7-8.8-3.9c-3-3.6-3.3-8.6-3.3-19.3c0-10.8,0.3-15.7,3.3-19.3
			c1.9-2.2,4.6-3.9,8.8-3.9s7,1.7,8.8,3.9c3.1,3.6,3.3,8.6,3.3,19.3C197.9,87.6,197.6,92.5,194.5,96.1z M189.2,61.7
			c-0.6-1-1.7-1.7-3.4-1.7s-2.7,0.7-3.4,1.7c-1.3,2.2-1.6,6.8-1.6,15.1c0,8.3,0.3,12.9,1.6,15.1c0.6,1,1.7,1.7,3.4,1.7
			s2.8-0.7,3.4-1.7c1.3-2.2,1.5-6.8,1.5-15.1C190.7,68.5,190.5,63.9,189.2,61.7z"/>
		<path class="st3" d="M222.3,95.7c-1.9,2.1-4.5,3.8-8.8,3.8H202V54h11.6c4.3,0,7,1.7,8.8,3.8c3.1,3.4,3.3,8.4,3.3,18.9
			C225.7,87.2,225.4,92.3,222.3,95.7z M217,62.3c-0.7-1.1-1.9-1.9-3.6-1.9h-4.2V93h4.2c1.7,0,2.9-0.8,3.6-1.9
			c1.4-2.1,1.5-6.6,1.5-14.5C218.5,68.8,218.4,64.4,217,62.3z"/>
		<path class="st3" d="M249.8,96.7c-2.2,2.2-5,3.3-8.4,3.3s-6.3-1.1-8.5-3.3c-2-2-3.1-4.9-3.1-8.4V54h7.2v34.7c0,3.3,2,4.9,4.5,4.9
			c2.4,0,4.4-1.6,4.4-4.9V54h7.2v34.3C253,91.8,251.8,94.6,249.8,96.7z"/>
		<path class="st3" d="M277.1,97.1c-2,1.9-4.4,2.9-7.9,2.9c-4.2,0-7-1.7-8.8-3.9c-3-3.6-3.3-8.6-3.3-19.3c0-10.8,0.3-15.8,3.3-19.3
			c1.9-2.2,4.6-3.9,8.8-3.9c3.4,0,5.9,1,8,2.9c2.3,2.1,3.5,5.6,3.6,9.6h-7.2c-0.1-1.7-0.3-3.3-1.1-4.4c-0.6-1-1.7-1.7-3.4-1.7
			c-1.7,0-2.7,0.7-3.4,1.7c-1.4,2.2-1.6,6.8-1.6,15.1c0,8.3,0.2,12.9,1.6,15.1c0.6,1,1.7,1.7,3.4,1.7c1.7,0,2.7-0.6,3.4-1.7
			c0.8-1.1,1-2.8,1.1-4.5h7.2C280.7,91.5,279.4,95,277.1,97.1z"/>
		<path class="st3" d="M299.7,60.5v39h-7.2v-39h-7.6V54h22.4v6.4H299.7z"/>
		<path class="st3" d="M311.5,99.5V54h7.2v45.5H311.5z"/>
		<path class="st3" d="M343.7,96.1c-1.9,2.2-4.6,3.9-8.8,3.9c-4.2,0-7-1.7-8.8-3.9c-3-3.6-3.3-8.6-3.3-19.3
			c0-10.8,0.3-15.7,3.3-19.3c1.9-2.2,4.6-3.9,8.8-3.9c4.2,0,7,1.7,8.8,3.9c3.1,3.6,3.3,8.6,3.3,19.3C347,87.6,346.7,92.5,343.7,96.1
			z M338.3,61.7c-0.6-1-1.7-1.7-3.4-1.7c-1.7,0-2.7,0.7-3.4,1.7c-1.3,2.2-1.6,6.8-1.6,15.1c0,8.3,0.3,12.9,1.6,15.1
			c0.6,1,1.7,1.7,3.4,1.7c1.7,0,2.8-0.7,3.4-1.7c1.3-2.2,1.5-6.8,1.5-15.1C339.8,68.5,339.7,63.9,338.3,61.7z"/>
		<path class="st3" d="M369,99.5l-10.7-27v27h-7.2V54h6.4l10.7,27V54h7.2v45.5H369z"/>
		<path class="st3" d="M400,96.9c-1.9,1.8-4.9,3-8.9,3c-4,0-6.9-1.1-8.8-3c-2.2-2.2-2.9-5-2.9-9.8h7.2c0,2.4,0.3,4,1.3,5.1
			c0.6,0.7,1.7,1.2,3.3,1.2c1.7,0,2.7-0.4,3.4-1.3c1-1.1,1.2-2.6,1.2-5c0-4.9-0.8-6.1-4.3-7.5l-5.4-2.2c-4.6-1.9-6.3-4.4-6.3-11.4
			c0-4.1,1.2-7.4,3.7-9.6c2-1.7,4.5-2.7,7.8-2.7c3.6,0,6.3,1,8.2,2.7c2.4,2.3,3.2,5.6,3.2,9.9h-7.2c0-2-0.1-3.6-1.1-4.9
			c-0.6-0.8-1.7-1.3-3.2-1.3c-1.5,0-2.4,0.5-3.1,1.3c-0.8,1-1.2,2.5-1.2,4.5c0,3.7,0.6,4.9,3.8,6.1l5.4,2.2
			c5.4,2.2,6.9,5.1,6.9,12.8C403,91.6,402.3,94.7,400,96.9z"/>
	</g>
</g>
</svg>
