<?xml version="1.0" encoding="utf-8"?>
<!-- Generator: Adobe Illustrator 22.1.0, SVG Export Plug-In . SVG Version: 6.00 Build 0)  -->
<svg version="1.1" id="Livello_1" xmlns="http://www.w3.org/2000/svg" xmlns:xlink="http://www.w3.org/1999/xlink" x="0px" y="0px"
	 viewBox="0 0 200 99.9" style="enable-background:new 0 0 200 99.9;" xml:space="preserve">
<style type="text/css">
	.st0{fill:#FECB00;}
	.st1{fill:#FECB00;stroke:#FFFFFF;stroke-miterlimit:10;}
	.st2{fill:#FFFFFF;stroke:#FECB00;stroke-miterlimit:10;}
	.st3{fill:#B1B1B0;}
	.st4{opacity:0.9;}
	.st5{fill:#FFFFFF;}
	.st6{fill:#30302F;}
</style>
<g>
	<g>
		<g>
			<g>
				<path class="st5" d="M198.2,57.8c-11.6,0-13.4-8.7-13.4-13.9V1.8c0-1-0.8-1.8-1.8-1.8h-7c-1,0-1.8,0.8-1.8,1.8v24.9
					c-3.5-2.1-7.5-3.4-11.9-3.4c-12.4,0-22.6,10.1-22.6,22.6c0,3.3,0.7,6.4,1.9,9.2h13c-2.6-2.2-4.2-5.5-4.2-9.2
					c0-6.6,5.4-11.9,11.9-11.9c6.6,0,11.9,5.4,11.9,11.9c0,6.5-5.2,11.8-11.6,11.9v0l-19.5,0c-11.6,0-13.4-8.7-13.4-13.9V21
					c0-12.6-8.1-20.7-20.7-20.7c-1,0-1.8,0.8-1.8,1.8v7c0,1,0.8,1.8,1.8,1.8c10,0,10,7.5,10,10v23c0,14.9,9.4,24.5,24,24.5h21.2
					v-0.1c6.1-0.5,11.6-3.5,15.3-7.9c4.2,5.1,10.6,8,18.7,8c1,0,1.8-0.8,1.8-1.8v-7C200,58.7,199.2,57.8,198.2,57.8z"/>
				<path class="st5" d="M92.2,23.3c-12.5,0-22.6,10.1-22.6,22.6c0,12.4,10.1,22.6,22.6,22.6c12.4,0,22.6-10.1,22.6-22.6
					S104.6,23.3,92.2,23.3z M92.2,57.8c-6.6,0-11.9-5.4-11.9-11.9c0-6.6,5.4-11.9,11.9-11.9c6.6,0,11.9,5.4,11.9,11.9
					S98.8,57.8,92.2,57.8z"/>
			</g>
			<path class="st5" d="M60.5,60.3c3.1-3.9,5-8.8,5-14.1c0-12.4-10.1-22.6-22.6-22.6c-12.4,0-22.6,10.1-22.6,22.6
				c0,12.4,10,22.5,22.4,22.6h8.6c5.6,0,10.2,4.6,10.2,10.2s-4.6,10.2-10.2,10.2c-5.9,0-8.5-3.7-10.9-7.7L40,80.7l-0.6-1.1
				c-2.3-4-7.5-13.3-18.5-13.3C9.3,66.3,0,75.7,0,87.2c0,1,0.8,1.8,1.8,1.8h7c1,0,1.8-0.8,1.8-1.8c0-5.6,4.6-10.2,10.2-10.2
				c4.4,0,6.9,3.8,9.2,7.9l0.7,1.3l0.4,0.7c2.3,3.9,7.6,13.1,20.1,13.1c11.5,0,20.9-9.3,20.9-20.9C72.1,70.8,67.4,63.7,60.5,60.3z
				 M42.9,58.2c-6.6,0-11.9-5.4-11.9-11.9c0-6.6,5.4-11.9,11.9-11.9c6.6,0,11.9,5.4,11.9,11.9C54.9,52.8,49.5,58.2,42.9,58.2z"/>
		</g>
	</g>
</g>
</svg>
