<?xml version="1.0" encoding="utf-8"?>
<!-- Generator: Adobe Illustrator 22.1.0, SVG Export Plug-In . SVG Version: 6.00 Build 0)  -->
<svg version="1.1" id="Livello_1" xmlns="http://www.w3.org/2000/svg" xmlns:xlink="http://www.w3.org/1999/xlink" x="0px" y="0px"
	 viewBox="0 0 300.3 150" style="enable-background:new 0 0 300.3 150;" xml:space="preserve">
<style type="text/css">
	.st0{fill:#FECB00;}
	.st1{fill:#FECB00;stroke:#FFFFFF;stroke-miterlimit:10;}
	.st2{fill:#FFFFFF;stroke:#FECB00;stroke-miterlimit:10;}
	.st3{fill:#FFF;}
	.st4{opacity:0.9;}
	.st5{fill:#FFFFFF;}
	.st6{fill:#30302F;}
</style>
<g>
	<path class="st3" d="M119.2,110.8l-1.4,1l-1.6-2.2l-1.6,2.2l-1.4-1l1.6-2.2l-2.6-0.9l0.5-1.7l2.6,0.9v-2.7h1.7v2.7h0.1l2.6-0.9
		l0.5,1.7l-2.6,0.9L119.2,110.8z M300.3,100.2c0,1.5-1.2,2.7-2.7,2.7c-12.1-0.1-21.8-4.4-28.1-12c-5.6,6.7-13.8,11.1-23,11.9v0.1
		h-31.8c-21.9,0-36-14.4-36-36.8V31.5c0-3.7,0-15.1-15.1-15.1c-1.5,0-2.7-1.2-2.7-2.7V3.2c0-1.5,1.2-2.7,2.7-2.7
		c18.9,0,31,12.2,31,31V66c0,7.8,2.6,20.8,20.1,20.8l29.3,0.1v-0.1c9.7-0.2,17.5-8.2,17.5-17.9c0-9.9-8-17.9-17.9-17.9
		s-17.9,8-17.9,17.9c0,5.5,2.5,10.5,6.4,13.7h-19.5c-1.8-4.2-2.9-8.9-2.9-13.7c0-18.7,15.2-33.9,33.9-33.9c6.6,0,12.7,1.9,17.9,5.1
		V2.7c0-1.5,1.2-2.7,2.7-2.7h10.6c1.5,0,2.7,1.2,2.7,2.7v63.4c0,7.8,2.6,20.8,20.1,20.8c1.5,0,2.7,1.2,2.7,2.7V100.2z M90.8,90.6
		c4.7-5.8,7.5-13.2,7.5-21.2c0-18.7-15.2-33.9-33.9-33.9c-18.7,0-33.9,15.2-33.9,33.9c0,18.6,15.1,33.8,33.7,33.9H77
		c8.4,0,15.4,6.9,15.4,15.4c0,8.4-6.9,15.4-15.4,15.4c-8.9,0-12.8-5.5-16.3-11.6l-0.7-1.2l-0.9-1.6c-3.4-6-11.3-20-27.8-20
		C14,99.6,0,113.6,0,130.9c0,1.5,1.2,2.7,2.7,2.7h10.6c1.5,0,2.7-1.2,2.7-2.7c0-8.4,6.9-15.4,15.4-15.4c6.6,0,10.3,5.6,13.9,11.9
		l1.1,1.9l0.6,1C50.2,136.3,58.2,150,77,150c17.2,0,31.3-14,31.3-31.3C108.3,106.4,101.2,95.7,90.8,90.6z M64.4,87.3
		c-9.9-0.1-17.9-8-17.9-17.9c0-9.9,8-17.9,17.9-17.9c9.9,0,17.9,8,17.9,17.9C82.4,79.3,74.3,87.3,64.4,87.3z M138.4,35
		c-18.7,0-33.9,15.2-33.9,33.9c0,18.7,15.2,33.9,33.9,33.9c18.7,0,33.9-15.2,33.9-33.9S157.1,35,138.4,35z M138.4,86.9
		c-9.9-0.1-17.9-8.1-17.9-17.9c0-9.9,8.1-17.9,17.9-17.9c9.9,0,17.9,8.1,17.9,17.9S148.3,86.9,138.4,86.9z M128.8,108.3l-2.1,5.6
		l-1.9-5.6h-3.3l3.8,8.9v5.7h2.9v-5.7l3.8-8.9H128.8z M142.6,112.5c-0.1-0.9-0.3-1.7-0.7-2.4c-0.3-0.6-0.9-1.2-1.5-1.6
		c-0.6-0.4-1.5-0.6-2.6-0.6c-1.1,0-2,0.2-2.6,0.6c-0.6,0.3-1.2,0.9-1.5,1.6c-0.3,0.7-0.6,1.5-0.7,2.4c-0.1,0.9-0.2,2-0.2,3
		c0,1.1,0.1,2.1,0.2,3c0.1,0.9,0.3,1.7,0.7,2.4c0.3,0.7,0.9,1.2,1.5,1.6c0.7,0.3,1.5,0.5,2.6,0.5c1.1,0,2-0.2,2.6-0.5
		c0.6-0.4,1.2-0.9,1.5-1.6c0.3-0.7,0.6-1.5,0.7-2.4c0.1-0.9,0.2-2,0.2-3C142.8,114.5,142.7,113.4,142.6,112.5z M139.7,118.1
		c-0.1,0.7-0.2,1.2-0.3,1.7c-0.2,0.4-0.3,0.7-0.6,0.9c-0.2,0.2-0.6,0.3-1,0.3c-0.4,0-0.7-0.1-1-0.3c-0.3-0.2-0.5-0.5-0.6-0.9
		c-0.2-0.4-0.2-1-0.3-1.7c-0.1-0.7-0.1-1.5-0.1-2.5c0-1,0-1.8,0.1-2.5c0.1-0.7,0.1-1.2,0.3-1.7c0.2-0.5,0.3-0.8,0.6-1
		c0.2-0.2,0.6-0.3,1-0.3c0.4,0,0.7,0.1,1,0.3c0.3,0.2,0.5,0.5,0.6,1c0.1,0.4,0.2,1,0.3,1.7c0.1,0.7,0.1,1.5,0.1,2.5
		C139.8,116.6,139.8,117.4,139.7,118.1z M150.6,108.3v10.2c0,0.4,0,0.7-0.1,1c-0.1,0.3-0.2,0.6-0.3,0.8c-0.1,0.2-0.3,0.4-0.5,0.5
		c-0.2,0.1-0.5,0.2-0.9,0.2s-0.6-0.1-0.9-0.2c-0.2-0.1-0.4-0.3-0.5-0.5c-0.2-0.2-0.2-0.5-0.3-0.8c-0.1-0.3-0.1-0.7-0.1-1v-10.3h-2.9
		v10.2c0,1,0.2,1.8,0.4,2.4c0.2,0.6,0.6,1.1,1,1.4c0.5,0.3,0.9,0.6,1.5,0.7c0.5,0.1,1.1,0.2,1.7,0.2c0.6,0,1.2-0.1,1.7-0.2
		c0.6-0.1,1-0.3,1.5-0.7c0.4-0.3,0.7-0.8,1-1.4c0.3-0.6,0.4-1.4,0.4-2.3v-10.2H150.6z M164.8,122c0-0.4-0.1-1-0.1-1.8
		c-0.1-0.4-0.1-0.7-0.1-1.1c0-0.3-0.1-0.6-0.1-0.9c-0.1-0.8-0.3-1.4-0.6-1.8c-0.3-0.4-0.9-0.6-1.6-0.7v-0.1c0.8-0.2,1.4-0.6,1.8-1.2
		c0.4-0.6,0.6-1.4,0.6-2.4c0-1.3-0.3-2.2-1-2.8c-0.7-0.6-1.7-0.9-2.9-0.9v0.1h-5.4V123h3v-6.2h1.6c0.6,0,1,0.2,1.3,0.5
		c0.2,0.3,0.3,0.8,0.4,1.4l0.1,2.8c0,0.3,0,0.5,0.1,0.8c0.1,0.2,0.1,0.5,0.3,0.7h3.2v-0.1C165,122.7,164.8,122.4,164.8,122z
		 M161.2,114.1c-0.3,0.3-0.9,0.5-1.6,0.5h-1.2v-4.2h1.4c1.3,0,2,0.7,2,2C161.8,113.2,161.6,113.8,161.2,114.1z M180.8,117.3
		c-0.1-0.3-0.2-0.7-0.5-1c-0.2-0.3-0.5-0.6-0.9-0.9c-0.3-0.2-0.8-0.5-1.4-0.7l-2.2-1c-0.6-0.3-1-0.6-1.2-0.9
		c-0.2-0.3-0.3-0.7-0.3-1.2c0-0.2,0-0.4,0.1-0.6c0.1-0.2,0.2-0.3,0.3-0.5c0.1-0.2,0.3-0.3,0.5-0.4c0.2-0.1,0.5-0.1,0.8-0.1
		c0.6,0,1,0.2,1.2,0.6c0.2,0.4,0.3,0.9,0.3,1.6h2.8v-0.4c0-0.7-0.1-1.3-0.3-1.8c-0.3-0.5-0.6-0.9-1-1.2c-0.4-0.3-0.9-0.5-1.4-0.7
		c-0.6-0.2-1.2-0.2-1.8-0.2c-1.4,0-2.5,0.3-3.3,1c-0.8,0.7-1.2,1.8-1.2,3.2c0,0.6,0.1,1.2,0.2,1.6c0.1,0.5,0.4,0.9,0.7,1.2
		c0.3,0.3,0.7,0.7,1.2,0.9c0.5,0.2,1.1,0.5,1.7,0.7c0.5,0.1,0.9,0.3,1.3,0.5c0.3,0.2,0.6,0.3,0.8,0.5c0.2,0.2,0.4,0.4,0.5,0.6
		c0.1,0.2,0.1,0.5,0.1,0.9c0,0.6-0.2,1.1-0.5,1.4c-0.3,0.3-0.7,0.5-1.2,0.5c-0.4,0-0.7-0.1-1-0.2c-0.2-0.1-0.5-0.3-0.6-0.5
		c-0.1-0.2-0.2-0.4-0.3-0.7c0-0.3-0.1-0.6-0.1-0.9v-0.6h-2.9v0.6c0,1.3,0.4,2.4,1.1,3.1c0.7,0.7,1.9,1.1,3.6,1.1
		c1.6,0,2.8-0.3,3.7-1c0.9-0.7,1.3-1.8,1.3-3.3C180.9,118.1,180.8,117.7,180.8,117.3z M181.6,108.3v2.4h3.2v12.2h3v-12.2h3.2v-2.4
		H181.6z M201.5,122c0-0.4-0.1-1-0.1-1.8c0-0.4-0.1-0.7-0.1-1.1c0-0.3,0-0.6-0.1-0.9c-0.1-0.8-0.3-1.4-0.6-1.8
		c-0.3-0.4-0.9-0.6-1.6-0.7v-0.1c0.9-0.2,1.4-0.6,1.8-1.2c0.4-0.6,0.6-1.4,0.6-2.4c0-1.3-0.3-2.2-1-2.8c-0.7-0.6-1.7-0.9-2.9-0.9
		v0.1h-5.4V123h2.9v-6.2h1.6c0.6,0,1,0.2,1.3,0.5c0.3,0.3,0.4,0.8,0.5,1.4l0.1,2.8c0,0.3,0,0.5,0.1,0.8c0.1,0.2,0.1,0.5,0.3,0.7h3.2
		v-0.1C201.8,122.7,201.6,122.4,201.5,122z M197.9,114.1c-0.3,0.3-0.9,0.5-1.6,0.5h-1.2v-4.2h1.4c1.3,0,2,0.7,2,2
		C198.5,113.2,198.4,113.8,197.9,114.1z M209.1,118.7c0,0.8-0.1,1.5-0.3,2c-0.2,0.5-0.6,0.7-1.3,0.7c-0.3,0-0.6-0.1-0.9-0.2
		c-0.2-0.1-0.3-0.3-0.5-0.5c-0.1-0.2-0.2-0.5-0.2-0.7c-0.1-0.3-0.1-0.6-0.1-0.9c0-0.3,0-0.6,0.1-0.9c0.1-0.3,0.2-0.6,0.3-0.8
		c0.1-0.2,0.3-0.5,0.6-0.6c0.2-0.2,0.6-0.2,1-0.2h1.2v-2h-1c-0.3,0-0.6-0.1-0.8-0.2c-0.2-0.1-0.4-0.3-0.5-0.5
		c-0.1-0.2-0.2-0.5-0.3-0.7c-0.1-0.3-0.1-0.6-0.1-0.9c0-0.7,0.1-1.2,0.3-1.5c0.2-0.2,0.6-0.4,1-0.4c0.3,0,0.6,0.1,0.7,0.2
		c0.2,0.1,0.3,0.3,0.5,0.5c0.1,0.2,0.2,0.5,0.2,0.7s0.1,0.6,0.1,0.9h2.7c0-1.4-0.3-2.5-1.1-3.2c-0.7-0.7-1.8-1-3.2-1
		c-1.3,0-2.4,0.3-3.1,0.9c-0.7,0.6-1.1,1.6-1.1,2.8c0,0.9,0.2,1.6,0.6,2.1c0.3,0.5,0.9,0.9,1.6,1v0.1c-1,0.2-1.6,0.5-2,1.1
		c-0.4,0.6-0.6,1.4-0.6,2.3c0,0.5,0.1,1,0.2,1.5c0.1,0.5,0.3,1,0.7,1.4c0.4,0.5,0.9,0.7,1.5,1c0.6,0.3,1.4,0.4,2.4,0.4
		c1.4,0,2.5-0.4,3.2-1.1c0.7-0.8,1-1.9,1-3.3v-0.1H209.1z M218.9,118.7c0,0.8-0.1,1.5-0.2,2c-0.2,0.5-0.6,0.7-1.3,0.7
		c-0.3,0-0.6-0.1-0.9-0.2c-0.2-0.1-0.3-0.3-0.5-0.5c-0.1-0.2-0.2-0.5-0.2-0.7c-0.1-0.3-0.1-0.6-0.1-0.9c0-0.3,0-0.6,0.1-0.9
		c0.1-0.3,0.2-0.6,0.3-0.8c0.1-0.2,0.3-0.5,0.6-0.6c0.2-0.2,0.6-0.2,1-0.2h1v-2h-1c-0.3,0-0.6-0.1-0.8-0.2c-0.2-0.1-0.4-0.3-0.5-0.5
		c-0.1-0.2-0.2-0.5-0.3-0.7c0-0.3-0.1-0.6-0.1-0.9c0-0.7,0.1-1.2,0.3-1.5c0.2-0.2,0.6-0.4,1-0.4c0.3,0,0.6,0.1,0.7,0.2
		c0.2,0.1,0.3,0.3,0.5,0.5c0.1,0.2,0.2,0.5,0.2,0.7c0.1,0.3,0.1,0.6,0.1,0.9h2.7c0-1.4-0.3-2.5-1.1-3.2c-0.7-0.7-1.8-1-3.2-1
		c-1.3,0-2.4,0.3-3.1,0.9c-0.7,0.6-1.1,1.6-1.1,2.8c0,0.9,0.2,1.6,0.6,2.1c0.3,0.5,0.9,0.9,1.6,1v0.1c-1,0.2-1.6,0.5-2,1.1
		c-0.4,0.6-0.6,1.4-0.6,2.3c0,0.5,0.1,1,0.2,1.5c0.1,0.5,0.3,1,0.7,1.4c0.3,0.5,0.8,0.7,1.4,1c0.6,0.3,1.4,0.4,2.5,0.4
		c1.4,0,2.5-0.4,3.2-1.1c0.7-0.8,1-1.9,1-3.3v-0.1H218.9z M222.4,108.3v2.4h3.2v12.2h2.9v-12.2h3.2v-2.4H222.4z M247.5,112.5
		c-0.1-0.9-0.3-1.6-0.7-2.2c-0.3-0.6-0.8-1.1-1.4-1.4c-0.6-0.3-1.4-0.5-2.5-0.5v0.1H238v14.6h4.7c1,0,1.8-0.2,2.4-0.5
		c0.6-0.3,1.2-0.7,1.6-1.4c0.4-0.6,0.6-1.4,0.8-2.4c0.2-0.9,0.2-2.1,0.2-3.3C247.7,114.3,247.6,113.3,247.5,112.5z M244.7,118
		c-0.1,0.7-0.2,1.2-0.3,1.6c-0.2,0.4-0.5,0.7-0.7,0.9c-0.3,0.2-0.7,0.3-1.3,0.3h-1.3v-10.3h1.3c0.5,0,1,0.1,1.3,0.3
		c0.3,0.2,0.6,0.5,0.7,0.9c0.2,0.4,0.3,0.9,0.3,1.6c0,0.6,0.1,1.4,0.1,2.2C244.8,116.5,244.7,117.3,244.7,118z M255.2,118.7
		c0,0.8-0.1,1.5-0.2,2c-0.2,0.5-0.6,0.7-1.3,0.7c-0.3,0-0.6-0.1-0.9-0.2c-0.2-0.1-0.3-0.3-0.5-0.5c-0.1-0.2-0.2-0.5-0.2-0.7
		c-0.1-0.3-0.1-0.6-0.1-0.9c0-0.3,0-0.6,0.1-0.9c0.1-0.3,0.2-0.6,0.3-0.8c0.2-0.2,0.3-0.5,0.6-0.6c0.2-0.2,0.6-0.2,1-0.2h1v-2h-1
		c-0.3,0-0.6-0.1-0.8-0.2c-0.2-0.1-0.4-0.3-0.5-0.5c-0.1-0.2-0.2-0.5-0.3-0.7c-0.1-0.3-0.1-0.6-0.1-0.9c0-0.7,0.1-1.2,0.3-1.5
		c0.2-0.2,0.6-0.4,1-0.4c0.3,0,0.6,0.1,0.7,0.2c0.2,0.1,0.3,0.3,0.5,0.5c0.1,0.2,0.2,0.5,0.2,0.7c0.1,0.3,0.1,0.6,0.1,0.9h2.7
		c0-1.4-0.3-2.5-1.1-3.2c-0.7-0.7-1.8-1-3.2-1c-1.3,0-2.4,0.3-3.1,0.9c-0.7,0.6-1.1,1.6-1.1,2.8c0,0.9,0.2,1.6,0.6,2.1
		c0.3,0.5,0.9,0.9,1.6,1v0.1c-1,0.2-1.6,0.5-2,1.1c-0.4,0.6-0.6,1.4-0.6,2.3c0,0.5,0.1,1,0.2,1.5c0.1,0.5,0.3,1,0.7,1.4
		c0.3,0.5,0.8,0.7,1.4,1c0.6,0.3,1.4,0.4,2.5,0.4c1.4,0,2.5-0.4,3.2-1.1c0.7-0.8,1-1.9,1-3.3v-0.1H255.2z M269.2,113.3
		c-0.1-1-0.2-1.9-0.6-2.6c-0.3-0.7-0.8-1.4-1.5-1.8c-0.7-0.5-1.7-0.7-2.9-0.7c-0.5,0-1,0.1-1.6,0.2c-0.5,0.1-0.9,0.3-1.3,0.6
		c-0.4,0.3-0.7,0.7-0.9,1.2c-0.2,0.5-0.3,1.1-0.3,1.8h2.9c0-0.6,0.1-1,0.3-1.4c0.2-0.3,0.5-0.5,1-0.5c0.4,0,0.7,0.1,1,0.3
		c0.3,0.2,0.5,0.5,0.6,0.8c0.2,0.3,0.2,0.7,0.3,1.2c0.1,0.5,0.1,1,0.1,1.6v0.7h-0.1c-0.3-0.4-0.6-0.7-1.1-0.9
		c-0.5-0.2-1-0.3-1.7-0.3c-0.6,0-1.2,0.1-1.7,0.3c-0.5,0.2-0.9,0.6-1.2,1c-0.3,0.4-0.5,0.9-0.6,1.5c-0.2,0.5-0.2,1.2-0.2,1.8
		c0,1.7,0.4,3,1.2,3.9c0.7,0.9,2,1.3,3.7,1.3c1,0,1.8-0.2,2.5-0.6c0.6-0.3,1.1-0.9,1.4-1.5c0.3-0.6,0.5-1.4,0.6-2.2
		c0.1-0.9,0.2-1.7,0.2-2.6C269.3,115.3,269.2,114.3,269.2,113.3z M266.1,119.6c0,0.3-0.1,0.6-0.2,0.9c-0.1,0.3-0.3,0.5-0.5,0.6
		c-0.2,0.2-0.5,0.2-0.9,0.2s-0.6-0.1-0.9-0.2c-0.2-0.2-0.4-0.3-0.5-0.6c-0.1-0.2-0.2-0.6-0.2-0.9c-0.1-0.3-0.1-0.7-0.1-1.2
		c0-1,0.2-1.7,0.4-2.2c0.2-0.4,0.7-0.6,1.3-0.6c0.6,0,1,0.2,1.3,0.6c0.3,0.5,0.4,1.2,0.4,2.2C266.1,118.8,266.1,119.2,266.1,119.6z
		 M272.6,120.1c0.7-1,1.4-2,1.9-3c0.6-1,1-2.1,1.4-3.1c0.4-1,0.7-2.1,0.9-3c0.2-1,0.4-1.9,0.5-2.8h-3.2c-0.2,1-0.3,2.1-0.6,3.2
		c-0.2,1.1-0.6,2.2-0.9,3.2c-0.3,1.1-0.7,2.1-1.3,3.1c-0.5,1-1,2-1.7,2.8h0.1v2.3h9.2v-2.6H272.6z M285.9,118.7c0,0.8-0.1,1.5-0.1,2
		c-0.2,0.5-0.6,0.7-1.3,0.7c-0.3,0-0.6-0.1-0.9-0.2c-0.2-0.1-0.4-0.3-0.5-0.5c-0.1-0.2-0.2-0.5-0.2-0.7c-0.1-0.3-0.1-0.6-0.1-0.9
		c0-0.3,0-0.6,0.1-0.9c0.1-0.3,0.2-0.6,0.3-0.8c0.1-0.2,0.3-0.5,0.6-0.6c0.2-0.2,0.6-0.2,1-0.2h1v-2h-1c-0.3,0-0.6-0.1-0.8-0.2
		c-0.2-0.1-0.4-0.3-0.5-0.5c-0.1-0.2-0.2-0.5-0.3-0.7c-0.1-0.3-0.1-0.6-0.1-0.9c0-0.7,0.1-1.2,0.3-1.5c0.2-0.2,0.6-0.4,1-0.4
		c0.3,0,0.5,0.1,0.7,0.2c0.2,0.1,0.3,0.3,0.5,0.5c0.1,0.2,0.2,0.5,0.2,0.7c0.1,0.3,0.1,0.6,0.1,0.9h2.7c0-1.4-0.3-2.5-1.1-3.2
		c-0.7-0.7-1.8-1-3.2-1c-1.4,0-2.4,0.3-3.1,0.9c-0.7,0.6-1.1,1.6-1.1,2.8c0,0.9,0.2,1.6,0.6,2.1c0.3,0.5,0.9,0.9,1.6,1v0.1
		c-1,0.2-1.6,0.5-2,1.1c-0.4,0.6-0.6,1.4-0.6,2.3c0,0.5,0.1,1,0.2,1.5c0.1,0.5,0.3,1,0.7,1.4c0.3,0.5,0.8,0.7,1.4,1
		c0.6,0.3,1.4,0.4,2.5,0.4c1.4,0,2.5-0.4,3.2-1.1c0.7-0.8,1-1.9,1-3.3v-0.1H285.9z M299.5,122c0-0.4-0.1-1-0.1-1.8
		c-0.1-0.4-0.1-0.7-0.1-1.1c0-0.3,0-0.6-0.1-0.9c-0.1-0.8-0.3-1.4-0.6-1.8c-0.3-0.4-0.9-0.6-1.6-0.7v-0.1c0.9-0.2,1.4-0.6,1.8-1.2
		c0.4-0.6,0.6-1.4,0.6-2.4c0-1.3-0.3-2.2-1-2.8c-0.7-0.6-1.7-0.9-2.9-0.9v0.1h-5.3V123h2.9v-6.2h1.6c0.6,0,1,0.2,1.3,0.5
		c0.2,0.3,0.4,0.8,0.4,1.4l0.1,2.8c0,0.3,0,0.5,0.1,0.8c0.1,0.2,0.1,0.5,0.3,0.7h3.2v-0.1C299.8,122.7,299.6,122.4,299.5,122z
		 M295.9,114.1c-0.3,0.3-0.9,0.5-1.6,0.5h-1.2v-4.2h1.4c1.3,0,2,0.7,2,2C296.5,113.2,296.3,113.8,295.9,114.1z"/>
</g>
</svg>
