<?xml version="1.0" encoding="utf-8"?>
<!-- Generator: Adobe Illustrator 22.1.0, SVG Export Plug-In . SVG Version: 6.00 Build 0)  -->
<svg version="1.1" id="Livello_1" xmlns="http://www.w3.org/2000/svg" xmlns:xlink="http://www.w3.org/1999/xlink" x="0px" y="0px"
	 viewBox="0 0 106 106" style="enable-background:new 0 0 106 106;" xml:space="preserve">
<style type="text/css">
	.st0{fill:#FECB00;}
	.st1{fill:#FECB00;stroke:#FFFFFF;stroke-miterlimit:10;}
	.st2{fill:#FFFFFF;stroke:#FECB00;stroke-miterlimit:10;}
	.st3{fill:#B1B1B0;}
	.st4{opacity:0.9;}
	.st5{fill:#FFFFFF;}
	.st6{fill:#30302F;}
</style>
<g>
	<circle class="st5" cx="53" cy="53" r="53"/>
	<g>
		<path d="M77.2,60.1c0-4.5-2.3-8.5-5.8-10.8c1.3-2.1,2.1-4.6,2.1-7.3c0-7.7-6.3-13.9-14-14c-0.3,0-0.6,0-0.9,0
			C46.8,28.6,40,38.8,40,46.9c0,2.2,0.5,4.3,1.4,6.1c-1.3,0.7-2.4,1.5-3.4,2.6c-1,1-4.4,3.7-5.4,4.8c-2.5,2.5-3.8,5.7-3.8,9.2
			c0,1.4,1.1,2.5,2.5,2.5h3.9c1.9,0,5.7-3.8,7.2-5.5c0.2-0.2,0.5-0.5,0.6-0.8c0.9,0.5,1.7,1.6,2.6,3.3c0,0,0.4,0.7,0.4,0.7
			c0,0,0.2,0.4,0.2,0.4c1.3,2.2,4.6,7.9,12.4,7.9c5.9,0,12.1-5.7,14.9-8.9C75.8,66.8,77.2,63.6,77.2,60.1z"/>
		<path class="st0" d="M69.3,49.7C71,47.6,72,44.9,72,42c0-6.9-5.6-12.5-12.5-12.5c-6.9,0-12.5,5.6-12.5,12.5
			c0,6.8,5.5,12.4,12.4,12.5v0h4.7c3.1,0,5.6,2.5,5.6,5.6c0,3.1-2.5,5.6-5.6,5.6c-3.3,0-4.7-2-6-4.3L57.9,61l-0.3-0.6
			c-1.2-2.2-4.2-7.4-10.2-7.4c-6.4,0-11.5,5.2-11.5,11.5l0,0h0c0,0.6,0.4,1,1,1h3.9c0.6,0,1-0.4,1-1l0,0l0,0c0-3.1,2.5-5.6,5.6-5.6
			c2.4,0,3.8,2.1,5.1,4.4l0.4,0.7l0.2,0.4c1.3,2.2,4.2,7.2,11.1,7.2c6.3,0,11.5-5.2,11.5-11.5C75.7,55.5,73.1,51.6,69.3,49.7z
			 M53,42c0-3.6,3-6.6,6.6-6.6c3.6,0,6.6,3,6.6,6.6c0,3.6-3,6.6-6.6,6.6C55.9,48.5,53,45.6,53,42z"/>
	</g>
</g>
</svg>
